<?xml version="1.0" standalone="no"?>
<!DOCTYPE svg PUBLIC "-//W3C//DTD SVG 20010904//EN"
 "http://www.w3.org/TR/2001/REC-SVG-20010904/DTD/svg10.dtd">
<svg version="1.0" xmlns="http://www.w3.org/2000/svg"
 width="1245.000000pt" height="427.000000pt" viewBox="0 0 1245.000000 427.000000"
 preserveAspectRatio="xMidYMid meet">
<metadata>
Created by potrace 1.14, written by Peter Selinger 2001-2017
</metadata>
<g transform="translate(0.000000,427.000000) scale(0.100000,-0.100000)"
fill="#000000" stroke="none">
<path d="M5170 3280 c-9 -5 -81 -22 -160 -39 -180 -38 -201 -44 -254 -75 -122
-71 -185 -211 -207 -458 -20 -232 20 -410 116 -516 124 -138 379 -143 514 -10
151 149 159 439 15 597 -73 82 -193 121 -306 101 -78 -14 -108 -30 -170 -87
-56 -53 -57 -50 -34 70 24 126 78 208 158 241 20 9 97 27 171 40 181 34 187
37 187 98 0 49 -4 54 -30 38z m-145 -519 c102 -46 150 -149 143 -305 -3 -80
-8 -99 -34 -146 -45 -80 -97 -113 -184 -118 -38 -2 -84 1 -105 8 -56 18 -109
72 -141 142 -25 55 -29 77 -32 178 l-4 116 34 44 c50 66 122 100 212 100 47 0
84 -7 111 -19z"/>
<path d="M6531 3249 c27 -119 124 -192 259 -192 141 -1 239 66 275 187 l14 46
-62 0 -63 0 -12 -44 c-7 -28 -24 -54 -47 -75 -31 -27 -43 -31 -93 -31 -31 0
-68 6 -82 13 -33 17 -70 74 -70 108 0 29 0 29 -64 29 l-64 0 9 -41z"/>
<path d="M5781 2909 c-79 -14 -135 -42 -195 -99 -157 -148 -165 -453 -16 -614
134 -145 408 -148 550 -6 158 158 155 497 -6 639 -79 70 -211 101 -333 80z
m203 -123 c81 -40 126 -142 126 -286 0 -101 -18 -171 -59 -227 -39 -54 -89
-76 -183 -81 -66 -4 -85 0 -132 21 -96 44 -146 142 -146 287 0 143 47 236 142
284 47 24 62 27 133 24 52 -2 93 -10 119 -22z"/>
<path d="M8474 2910 c-103 -21 -212 -110 -259 -213 -34 -73 -48 -183 -35 -273
27 -196 125 -307 294 -334 91 -14 201 1 284 40 l62 29 0 55 0 54 -70 -36 c-62
-31 -81 -36 -161 -40 -67 -3 -100 0 -133 12 -83 32 -143 115 -153 212 l-6 54
287 0 286 0 0 48 c0 126 -34 234 -96 302 -46 51 -91 75 -169 89 -65 12 -73 12
-131 1z m166 -120 c59 -30 100 -102 100 -176 l0 -34 -220 0 c-249 0 -237 -4
-199 80 48 107 111 150 217 150 43 0 75 -6 102 -20z"/>
<path d="M9403 2910 c-22 -5 -59 -18 -80 -28 -39 -21 -123 -103 -123 -122 0
-5 -4 -10 -10 -10 -6 0 -10 32 -10 75 l0 75 -60 0 -60 0 0 -585 0 -585 60 0
60 0 0 245 c0 135 2 245 5 245 2 0 25 -22 51 -50 56 -60 116 -85 199 -84 82 1
154 27 210 76 57 50 88 98 114 175 59 177 24 390 -82 496 -64 64 -179 97 -274
77z m158 -135 c26 -18 53 -50 68 -80 24 -46 26 -60 26 -180 0 -114 -3 -136
-23 -180 -46 -101 -113 -145 -217 -145 -77 0 -126 21 -172 74 -47 53 -58 96
-57 231 0 132 13 178 70 244 45 53 95 72 186 69 66 -3 82 -7 119 -33z"/>
<path d="M11230 2909 c-30 -5 -83 -23 -117 -39 l-63 -29 0 -60 0 -61 46 30
c73 46 135 63 219 58 66 -3 78 -7 105 -33 35 -33 53 -84 48 -135 l-3 -34 -145
-22 c-166 -24 -234 -49 -284 -104 -93 -103 -77 -282 32 -351 123 -78 291 -50
368 62 l29 42 3 -66 3 -67 59 0 60 0 0 305 c0 283 -1 308 -21 359 -44 118
-175 174 -339 145z m240 -476 c0 -90 -19 -141 -71 -190 -43 -41 -77 -53 -145
-53 -101 0 -154 47 -154 137 0 109 40 139 224 168 45 7 96 13 114 14 l32 1 0
-77z"/>
<path d="M11955 2909 c-27 -4 -76 -15 -107 -25 l-58 -17 0 -55 c0 -48 2 -53
18 -47 72 30 142 45 216 45 98 0 142 -19 169 -73 17 -33 17 -42 5 -79 -20 -63
-59 -82 -180 -86 l-98 -4 0 -54 0 -54 86 0 c102 0 155 -14 195 -51 25 -23 29
-34 29 -82 0 -106 -63 -142 -237 -135 -96 4 -132 12 -205 43 -16 6 -18 1 -18
-49 0 -55 1 -57 34 -71 99 -42 316 -39 410 5 56 27 112 83 127 127 19 58 7
145 -25 188 -30 38 -94 74 -133 75 -13 0 -23 5 -23 10 0 6 8 10 18 10 10 0 38
13 63 29 56 35 83 87 82 156 -1 108 -69 173 -204 194 -72 12 -93 12 -164 0z"/>
<path d="M6450 2500 l0 -400 63 0 63 0 174 257 c96 142 191 287 212 323 l38
65 0 -323 0 -322 55 0 55 0 0 400 0 401 -62 -3 -62 -3 -184 -270 c-101 -148
-193 -289 -205 -312 -11 -24 -25 -43 -29 -43 -4 0 -8 142 -8 315 l0 315 -55 0
-55 0 0 -400z"/>
<path d="M7532 2763 c-24 -266 -80 -472 -146 -538 -20 -20 -35 -25 -76 -25
l-50 0 0 -49 c0 -48 0 -48 37 -54 133 -22 237 90 291 313 23 90 52 288 52 345
l0 35 95 0 95 0 0 -345 0 -345 60 0 60 0 0 400 0 400 -203 0 -203 0 -12 -137z"/>
<path d="M10420 2500 l0 -400 60 0 60 0 0 345 0 345 160 0 160 0 0 55 0 55
-220 0 -220 0 0 -400z"/>
<path d="M6149 1241 c-98 -31 -153 -141 -128 -259 22 -108 113 -167 222 -142
62 13 87 30 87 56 l0 22 -37 -19 c-56 -29 -134 -26 -172 7 -27 22 -51 75 -51
112 0 9 35 12 140 12 l140 0 0 43 c0 51 -34 123 -70 148 -30 21 -95 31 -131
20z m115 -72 c15 -18 26 -43 26 -60 l0 -29 -111 0 c-97 0 -110 2 -105 16 3 9
6 20 6 24 0 5 14 25 31 45 27 31 37 35 79 35 42 0 52 -4 74 -31z"/>
<path d="M7029 1241 c-98 -31 -153 -141 -128 -259 22 -108 113 -167 222 -142
62 13 87 30 87 56 l0 22 -37 -19 c-56 -29 -134 -26 -172 7 -27 22 -51 75 -51
112 0 9 35 12 140 12 l140 0 0 43 c0 51 -34 123 -70 148 -30 21 -95 31 -131
20z m115 -72 c15 -18 26 -43 26 -60 l0 -29 -111 0 c-97 0 -110 2 -105 16 3 9
6 20 6 24 0 5 14 25 31 45 27 31 37 35 79 35 42 0 52 -4 74 -31z"/>
<path d="M7490 1239 c-19 -6 -50 -25 -67 -42 l-33 -31 0 37 c0 34 -2 37 -30
37 l-30 0 0 -290 0 -290 30 0 30 0 0 122 0 122 28 -28 c87 -83 238 -30 272 94
16 58 8 159 -16 200 -35 59 -114 89 -184 69z m112 -68 c29 -26 33 -35 36 -99
7 -126 -36 -192 -127 -192 -82 0 -121 48 -121 150 0 112 44 170 131 170 40 0
55 -5 81 -29z"/>
<path d="M8949 1241 c-98 -31 -153 -141 -128 -259 22 -108 113 -167 222 -142
62 13 87 30 87 56 l0 22 -37 -19 c-56 -29 -134 -26 -172 7 -27 22 -51 75 -51
112 0 9 35 12 140 12 l140 0 0 43 c0 51 -34 123 -70 148 -30 21 -95 31 -131
20z m115 -72 c15 -18 26 -43 26 -60 l0 -29 -111 0 c-97 0 -110 2 -105 16 3 9
6 20 6 24 0 5 14 25 31 45 27 31 37 35 79 35 42 0 52 -4 74 -31z"/>
<path d="M9581 1235 c-99 -31 -156 -140 -131 -251 22 -96 85 -148 180 -147 71
1 110 16 110 44 0 16 -4 19 -17 13 -37 -16 -120 -16 -153 1 -85 44 -93 205
-13 275 33 29 40 31 92 28 31 -2 64 -8 74 -12 14 -7 17 -3 17 17 0 14 -6 27
-14 30 -36 14 -105 15 -145 2z"/>
<path d="M10411 1235 c-99 -31 -156 -140 -131 -251 22 -96 85 -148 180 -147
71 1 110 16 110 44 0 16 -4 19 -17 13 -37 -16 -120 -16 -153 1 -85 44 -93 205
-13 275 33 29 40 31 92 28 31 -2 64 -8 74 -12 14 -7 17 -3 17 17 0 14 -6 27
-14 30 -36 14 -105 15 -145 2z"/>
<path d="M11109 1241 c-98 -31 -153 -141 -128 -259 22 -108 113 -167 222 -142
62 13 87 30 87 56 l0 22 -37 -19 c-56 -29 -134 -26 -172 7 -27 22 -51 75 -51
112 0 9 35 12 140 12 l140 0 0 43 c0 51 -34 123 -70 148 -30 21 -95 31 -131
20z m115 -72 c15 -18 26 -43 26 -60 l0 -29 -111 0 c-97 0 -110 2 -105 16 3 9
6 20 6 24 0 5 14 25 31 45 27 31 37 35 79 35 42 0 52 -4 74 -31z"/>
<path d="M4510 1040 l0 -200 29 0 c33 0 39 7 175 208 l76 113 0 -161 0 -160
30 0 30 0 0 200 0 200 -32 0 c-31 -1 -39 -10 -140 -157 l-108 -157 0 157 0
157 -30 0 -30 0 0 -200z"/>
<path d="M4970 1040 l0 -200 30 0 30 0 0 95 0 95 105 0 105 0 0 -95 0 -95 30
0 30 0 0 200 0 200 -30 0 -30 0 0 -80 0 -80 -105 0 -105 0 0 80 0 80 -30 0
-30 0 0 -200z"/>
<path d="M5478 1147 c50 -51 92 -97 92 -102 0 -5 -44 -54 -97 -107 l-98 -98
37 0 c33 0 44 9 132 103 l96 102 0 -102 0 -103 30 0 30 0 0 100 c0 55 3 100 8
99 4 0 47 -45 96 -100 81 -91 92 -99 125 -99 l35 0 -64 68 c-36 37 -81 84
-100 105 l-34 37 94 95 95 95 -35 0 c-31 0 -45 -10 -127 -97 l-92 -98 -1 98 0
97 -30 0 -30 0 0 -97 -1 -98 -92 98 c-83 88 -96 98 -127 97 l-35 0 93 -93z"/>
<path d="M6450 1040 l0 -200 30 0 30 0 0 95 0 95 105 0 105 0 0 -95 0 -95 30
0 30 0 0 200 0 200 -30 0 -30 0 0 -80 0 -80 -105 0 -105 0 0 80 0 80 -30 0
-30 0 0 -200z"/>
<path d="M7800 1040 l0 -200 30 0 30 0 0 95 0 95 105 0 105 0 0 -95 0 -95 30
0 30 0 0 200 0 200 -30 0 -30 0 0 -80 0 -80 -105 0 -105 0 0 80 0 80 -30 0
-30 0 0 -200z"/>
<path d="M8260 1040 l0 -200 88 0 c109 0 154 12 186 51 45 53 28 140 -31 168
-15 8 -63 16 -105 19 l-78 5 0 78 0 79 -30 0 -30 0 0 -200z m224 -26 c21 -20
20 -83 -1 -106 -13 -14 -31 -18 -90 -18 l-73 0 0 70 0 70 74 0 c54 0 79 -4 90
-16z"/>
<path d="M8640 1040 l0 -200 30 0 30 0 0 200 0 200 -30 0 -30 0 0 -200z"/>
<path d="M9830 1040 l0 -200 29 0 c33 0 39 7 175 208 l76 113 0 -161 0 -160
30 0 30 0 0 200 0 200 -32 0 c-31 -1 -39 -10 -140 -157 l-108 -157 0 157 0
157 -30 0 -30 0 0 -200z"/>
<path d="M10610 1215 c0 -24 3 -25 60 -25 l60 0 0 -175 0 -175 30 0 30 0 0
175 0 175 60 0 c57 0 60 1 60 25 l0 25 -150 0 -150 0 0 -25z"/>
<path d="M11410 1040 l0 -200 25 0 25 0 2 168 3 167 66 -165 c60 -147 70 -165
92 -168 22 -3 27 4 51 65 14 37 44 113 66 168 l39 100 1 -167 0 -168 30 0 30
0 0 200 0 200 -38 0 -39 0 -63 -162 c-35 -90 -66 -166 -70 -171 -3 -4 -37 69
-75 163 l-69 170 -38 0 -38 0 0 -200z"/>
<path d="M11970 1040 l0 -200 88 0 c109 0 154 12 186 51 45 53 28 140 -31 168
-15 8 -63 16 -105 19 l-78 5 0 78 0 79 -30 0 -30 0 0 -200z m224 -26 c21 -20
20 -83 -1 -106 -13 -14 -31 -18 -90 -18 l-73 0 0 70 0 70 74 0 c54 0 79 -4 90
-16z"/>
<path d="M12350 1040 l0 -200 30 0 30 0 0 200 0 200 -30 0 -30 0 0 -200z"/>
</g>
</svg>
